<svg width="60" height="45" viewBox="0 0 60 45" fill="none" xmlns="http://www.w3.org/2000/svg">
<path d="M42.1032 0.676933C45.0561 1.24964 47.8636 2.4293 50.3542 4.14395C53.3147 6.23441 55.675 9.10367 57.4754 12.6834C59.7485 17.1922 60.2112 22.0666 59.2087 27.0297C58.6808 29.7781 57.6257 32.3934 56.104 34.7256C54.5823 37.0579 52.6238 39.0613 50.3408 40.6211C45.1844 44.2521 39.4546 45.4442 33.2722 44.1838C28.9942 43.3093 25.3565 41.1608 22.2988 38.1002C20.062 35.8376 18.3565 33.0887 17.31 30.0595C16.0332 26.4657 15.6947 22.5956 16.3277 18.8284C17.0172 14.626 18.8982 10.7208 21.7389 7.59389C24.6859 4.24643 28.1828 1.91345 32.5212 0.9297L33.0476 0.796485C37.3424 -0.262408 42.1032 0.676933 42.1032 0.676933ZM44.7083 22.6609C44.7083 20.6388 44.7385 18.6166 44.7083 16.5945C44.6647 14.3606 44.0076 12.3692 42.2541 10.8935C37.9392 7.26939 32.8665 9.96445 31.6093 13.5305C31.2201 14.7518 31.0221 16.0278 31.0226 17.3118C30.9421 20.4953 30.9689 23.6856 31.0226 26.876C31.035 28.036 31.1472 29.1927 31.3578 30.3328C32.2429 35.0465 37.4162 37.0789 41.2047 34.9475C43.6254 33.5812 44.601 31.3882 44.7183 28.7342C44.7787 26.712 44.7083 24.6865 44.7083 22.6609ZM0.452626 16.7516C0.452626 22.333 0.452626 27.9144 0.452626 33.4889C0.459954 34.0999 0.519408 34.7091 0.630319 35.3096C1.12652 38.1651 2.7157 40.3273 4.80443 42.2128C6.23246 43.4557 7.97549 44.2631 9.83348 44.5424C10.2492 44.6176 10.7186 44.3887 11.2014 44.2931C11.2651 43.6406 11.3489 43.1624 11.3489 42.6808C11.3489 37.0379 11.4327 31.4087 11.302 25.7556C11.2512 24.1044 10.8821 22.4795 10.2157 20.9735C8.56281 17.2913 5.6996 15.0027 1.62942 14.4015C0.419099 14.8729 0.449273 15.8123 0.449273 16.7516H0.452626ZM4.47587 9.29837C5.35992 9.29701 6.22372 9.02856 6.958 8.52697C7.69229 8.02538 8.26406 7.31318 8.60099 6.48047C8.93792 5.64776 9.02488 4.73195 8.85087 3.84888C8.67685 2.96581 8.24968 2.15516 7.62338 1.51947C6.99709 0.883786 6.19981 0.451621 5.3324 0.277645C4.465 0.103669 3.56643 0.1957 2.75037 0.542095C1.9343 0.888489 1.23741 1.47369 0.747843 2.22366C0.258273 2.97363 -0.00197731 3.85469 1.1312e-05 4.75538C0.00267497 5.96119 0.474706 7.1167 1.31255 7.96838C2.15039 8.82006 3.28561 9.29837 4.46916 9.29837H4.47587Z" fill="#17181A"/>
</svg>
