<svg width="59" height="46" viewBox="0 0 59 46" fill="none" xmlns="http://www.w3.org/2000/svg">
<path d="M49.4839 4.6747C45.6842 2.91026 41.6704 1.65894 37.5462 0.953125C36.9771 1.97875 36.4673 3.03666 36.0193 4.12158C31.6322 3.4592 27.1718 3.4592 22.7848 4.12158C22.3168 3.03887 21.7936 1.9813 21.2173 0.953125C17.0839 1.65927 13.0616 2.9153 9.2558 4.68835C1.72276 16.017 -0.322164 27.0758 0.696913 37.9674C5.12021 41.2835 10.0771 43.806 15.3499 45.4242C16.534 43.8071 17.5838 42.0941 18.4884 40.3028C16.7752 39.6546 15.1222 38.8548 13.5488 37.9128C13.9618 37.5987 14.358 37.2846 14.7439 36.967C19.3236 39.1523 24.3271 40.2858 29.3936 40.2858C34.4601 40.2858 39.4635 39.1523 44.0432 36.967C44.4359 37.3085 44.8422 37.6123 45.2519 37.9196C43.6748 38.8614 42.0185 39.6612 40.3021 40.3096C41.2029 42.1031 42.2528 43.8164 43.4406 45.431C48.7143 43.8194 53.671 41.2975 58.0902 37.9777C59.2887 25.3482 56.0351 14.3883 49.4839 4.6747ZM19.7818 31.2788C16.9277 31.2788 14.5814 28.6396 14.5814 25.3994C14.5814 22.1593 16.8735 19.4995 19.7818 19.4995C22.69 19.4995 25.0159 22.1388 24.9888 25.3823C24.9618 28.6259 22.6934 31.2788 19.7818 31.2788ZM39.0088 31.2788C36.1547 31.2788 33.8084 28.6396 33.8084 25.3994C33.8084 22.1593 36.1005 19.4995 39.0088 19.4995C41.917 19.4995 44.243 22.1388 44.2125 25.3823C44.182 28.6259 41.9204 31.2788 39.0088 31.2788Z" fill="#17181A"/>
</svg>
