<svg width="74" height="46" viewBox="0 0 74 46" fill="none" xmlns="http://www.w3.org/2000/svg">
<path d="M34.0326 0.996693C31.5393 1.22009 29.1619 2.18592 27.1883 3.77734C26.6437 4.24766 26.1315 4.75675 25.6555 5.30088C24.6385 6.54293 23.8544 7.97015 23.3432 9.50942C22.4239 12.5049 22.3097 15.7026 23.0129 18.76C23.3758 20.3778 24.0452 21.9052 24.9824 23.2538C25.9196 24.6024 27.1061 25.7454 28.4732 26.6169C29.7473 27.3978 31.14 27.9499 32.5924 28.2497C34.8914 28.685 37.2524 28.628 39.5293 28.0823C40.516 27.8179 41.4779 27.4623 42.4031 27.0199C43.0267 26.729 43.6343 26.4029 44.2232 26.043C44.3933 25.9218 44.5362 25.7642 44.6422 25.5809C44.7482 25.3976 44.8149 25.1929 44.8376 24.9806C44.8851 24.7336 44.8702 24.4781 44.7944 24.2387C44.7186 23.9994 44.5845 23.7843 44.4049 23.6142C44.274 23.4787 44.1148 23.376 43.9397 23.3138C43.7645 23.2516 43.5779 23.2317 43.3941 23.2555H42.9878L42.3899 23.5527C40.4311 24.5228 39.1725 24.9191 37.4812 25.1138C36.5157 25.1854 35.5465 25.1854 34.581 25.1138C32.1366 24.8439 30.2867 24.007 28.7639 22.4732C28.3368 22.0561 27.9587 21.5882 27.6375 21.0795C26.7467 19.647 26.1934 18.0183 26.0222 16.3244C25.9431 15.2225 25.9431 14.1161 26.0222 13.0143C26.5012 9.37961 28.199 6.75269 30.9771 5.33846C31.9985 4.82724 33.0965 4.49919 34.2242 4.36831C35.3483 4.28975 36.4761 4.28975 37.6002 4.36831C39.2138 4.57226 40.7796 5.07076 42.2247 5.84061L42.9614 6.21296H43.404C43.6309 6.24709 43.8624 6.20519 44.0647 6.0934C44.347 5.95014 44.5783 5.71817 44.7253 5.43069C44.8674 5.11329 44.9072 4.75709 44.8388 4.41454C44.7704 4.072 44.5975 3.76122 44.3454 3.52797C43.4932 2.97783 42.5943 2.50904 41.6599 2.1274C40.3633 1.56617 38.9965 1.19702 37.6002 1.03085C36.4128 0.942548 35.2213 0.931139 34.0326 0.996693ZM59.1705 0.996693C57.5394 1.14027 55.9497 1.60401 54.4865 2.3631C51.8625 3.72216 49.821 6.04162 48.7586 8.87062C47.9674 10.958 47.6041 13.1926 47.6917 15.4328C47.8833 18.76 48.8082 21.4757 50.5325 23.785C51.0824 24.4692 51.688 25.1035 52.3427 25.6809C53.9944 27.0515 55.9607 27.9576 58.0507 28.3112C58.9174 28.4704 59.7967 28.5436 60.6768 28.5298C61.4782 28.5453 62.2793 28.4905 63.0717 28.3659C64.6536 28.1457 66.1773 27.6019 67.5538 26.7661C68.9303 25.9304 70.132 24.8194 71.0887 23.498C72.0069 22.1776 72.7027 20.7062 73.1467 19.146C73.8845 16.5383 73.9573 13.7775 73.3581 11.132C72.992 9.46973 72.3397 7.88912 71.4323 6.46574C71.0344 5.84493 70.5786 5.26599 70.0713 4.73724C69.4962 4.12256 68.8595 3.5729 68.1719 3.09755C66.5385 1.97366 64.6684 1.27084 62.7182 1.04793C61.5384 0.941908 60.3527 0.924783 59.1705 0.996693ZM61.3804 4.218C63.0945 4.2741 64.7606 4.81652 66.1966 5.78596C68.5518 7.41881 69.926 9.90568 70.3257 13.2739C70.3851 14.2499 70.3851 15.2288 70.3257 16.2048C70.0449 18.596 69.2752 20.5158 67.9506 22.1043C67.4264 22.7301 66.8165 23.2733 66.1404 23.7167C64.9388 24.5365 63.5649 25.0472 62.1336 25.206L61.6513 25.2607C61.6513 25.2607 61.6314 23.8943 61.6513 22.2478C61.6513 19.6003 61.6711 19.2041 61.7206 18.9274C61.8176 18.4246 61.9614 17.9327 62.1501 17.4585C62.2186 17.3277 62.2644 17.1855 62.2855 17.0383L61.9552 16.7548C61.5456 16.3616 61.182 15.9202 60.8717 15.4396C60.6537 15.098 60.6471 15.098 60.4456 15.0229C60.2136 14.9333 59.9874 14.8283 59.7684 14.7086C59.5042 14.572 59.2861 14.4627 59.2828 14.4695C59.2838 14.5578 59.2926 14.6459 59.3093 14.7325C59.341 15.0342 59.3542 15.3377 59.3489 15.6412C59.3602 16.0121 59.3325 16.3832 59.2663 16.748C59.2234 16.9905 59.187 17.233 59.187 17.2945C59.2183 17.4583 59.2682 17.6177 59.3357 17.7694C59.4337 18.0215 59.5175 18.2793 59.5867 18.5414L59.6792 18.9547V25.2402H59.5669C59.5041 25.2402 59.3092 25.206 59.1342 25.1855C58.3178 25.0678 57.5189 24.8452 56.7558 24.5228C55.7085 24.0668 54.7528 23.4122 53.9381 22.5928C51.7679 20.3792 50.7439 16.9529 51.1304 13.2124C51.3187 11.1165 52.1013 9.12487 53.3799 7.48713C53.9961 6.75154 54.7127 6.11285 55.5072 5.59124C56.8684 4.76062 58.4072 4.2912 59.9864 4.22483C60.45 4.17988 60.9165 4.17759 61.3804 4.218ZM59.6066 8.46753C59.4108 8.49907 59.2167 8.54126 59.0252 8.59393C58.7004 8.67967 58.3858 8.80225 58.087 8.95944C58.0474 9.06875 58.609 9.92276 59.0516 10.4283C59.3304 10.7304 59.632 11.0091 59.9534 11.2618C59.9546 11.1364 59.9491 11.0109 59.9369 10.8861C59.8976 10.1266 59.9756 9.36554 60.1681 8.6315C60.1901 8.56214 60.2077 8.4914 60.221 8.41971C60.221 8.38555 59.9864 8.39921 59.6066 8.46753ZM62.0972 8.94919C62.1498 9.81317 62.3594 10.6592 62.7149 11.4429L62.8537 11.723L62.89 11.559C63.0832 10.838 63.3722 10.1482 63.7489 9.50942C63.8111 9.42443 63.8601 9.32993 63.8942 9.22931C63.376 8.92561 62.8204 8.6958 62.2426 8.5461L62.0873 8.50853L62.0972 8.94919ZM56.0126 10.4454C55.5796 10.9077 55.2136 11.4324 54.9258 12.0031L54.8399 12.1842L54.9192 12.2149C55.2162 12.3221 55.5196 12.4088 55.8276 12.4745C56.3363 12.5804 57.3702 12.6624 57.3702 12.5941C57.3164 12.4853 57.2557 12.3803 57.1886 12.2798C56.8216 11.66 56.5476 10.9862 56.3759 10.2814C56.3759 10.2097 56.3363 10.1482 56.3231 10.1482C56.2117 10.2381 56.1079 10.3375 56.0126 10.4454ZM66.147 11.7128C65.849 11.998 65.5261 12.2542 65.1825 12.4779C64.7291 12.7617 64.2459 12.9909 63.7422 13.1611L63.3326 13.3012V13.6428C63.356 14.1047 63.4269 14.5628 63.5441 15.0092L63.6068 15.221L63.8513 14.999C64.6711 14.2747 65.6461 13.763 66.6954 13.5062C67.0257 13.431 67.0257 13.4208 67.0257 13.3456C66.8506 12.7478 66.3882 11.6581 66.2891 11.6376C66.2858 11.6069 66.2032 11.6513 66.147 11.7128ZM55.1042 15.4704C54.949 15.4909 54.688 15.5387 54.5228 15.5694L54.2222 15.6309V15.8496C54.2213 16.1274 54.2811 16.4018 54.3973 16.6523C55.1817 17.2602 56.0827 17.6876 57.0399 17.906C57.6807 18.0392 58.7972 18.1041 58.8534 18.0119C58.7071 17.572 58.5014 17.1556 58.2423 16.7753C57.9626 16.3439 57.6294 15.9523 57.2513 15.6104C56.546 15.4562 55.8232 15.4056 55.1042 15.4601V15.4704ZM66.7449 16.7206C65.6556 17.1811 64.7095 17.9421 64.0098 18.9206C63.9347 19.0124 63.8673 19.1107 63.8083 19.2143C64.1609 19.1628 64.5059 19.0665 64.8356 18.9274C65.3083 18.7316 65.76 18.4855 66.1834 18.1929C66.7614 17.783 66.7416 17.8035 66.9233 17.2399C67.0785 16.7548 67.1083 16.5942 67.0554 16.5942C66.9495 16.6255 66.8457 16.6643 66.7449 16.7104V16.7206ZM58.1102 19.877C57.6992 19.9335 57.2951 20.0343 56.9045 20.1777L56.5213 20.3075L56.6237 20.3929C57.2353 20.8858 57.9218 21.2702 58.6552 21.5304C59.2762 21.7354 59.2564 21.7354 59.2861 21.5987C59.3517 21.1397 59.376 20.6754 59.3588 20.2118L59.3489 19.8224H58.8864C58.6453 19.8292 58.2919 19.8531 58.1102 19.877ZM1.97108 1.34513C1.71894 1.40551 1.48344 1.52458 1.28252 1.69329C1.0816 1.862 0.920544 2.0759 0.811629 2.31869L0.682816 2.60222V26.9141L0.808342 27.1873C0.960711 27.5024 1.19974 27.7639 1.49541 27.9389C1.8951 28.1643 1.35007 28.1507 9.79653 28.1507C17.252 28.1507 17.5163 28.1507 17.7244 28.0823C17.9947 28.0026 18.2376 27.845 18.4247 27.628C18.5824 27.4559 18.7003 27.2491 18.7695 27.023C18.8387 26.797 18.8575 26.5577 18.8244 26.3231C18.7862 25.9323 18.6026 25.5721 18.3124 25.3188C18.0982 25.1075 17.8279 24.9671 17.5361 24.9157C17.3907 24.8884 15.2833 24.8781 10.6884 24.8781H4.04224V16.3688H10.1202H16.195L16.4328 16.2868C16.719 16.1782 16.9736 15.996 17.1727 15.7573C17.33 15.5473 17.4362 15.3013 17.4824 15.04C17.5286 14.7788 17.5136 14.5098 17.4385 14.2558C17.3634 14.0018 17.2305 13.7701 17.0509 13.5802C16.8713 13.3904 16.6503 13.2478 16.4064 13.1646C16.1851 13.0928 16.0595 13.0928 10.1302 13.0928H4.04224V4.5801H10.7214C14.9199 4.5801 17.4667 4.5801 17.5823 4.54252C17.8136 4.49069 18.031 4.38706 18.2194 4.23892C18.4077 4.09078 18.5624 3.90173 18.6724 3.6851C18.7766 3.45705 18.8306 3.20798 18.8306 2.95578C18.8306 2.70358 18.7766 2.45451 18.6724 2.22646C18.5608 2.00104 18.4022 1.8041 18.2079 1.6499C18.0137 1.4957 17.7887 1.3881 17.5493 1.33488C17.3181 1.29389 2.20231 1.29389 1.97108 1.34513ZM4.74914 31.6487C4.10868 31.7215 3.48392 31.9015 2.8993 32.1816C2.37441 32.4279 1.91374 32.7999 1.55533 33.2668C1.19692 33.7337 0.951063 34.282 0.83806 34.8666C0.804312 35.1006 0.788842 35.3371 0.79181 35.5737C0.79181 36.7693 1.19812 37.5174 2.22544 38.2382C3.02989 38.7034 3.89403 39.0484 4.79209 39.263L6.07374 39.6319C7.29595 39.9735 7.70886 40.1511 8.14159 40.4893C8.30532 40.6016 8.43979 40.7538 8.53313 40.9325C8.62646 41.1112 8.67577 41.311 8.67672 41.5141C8.72957 42.5116 8.19775 43.2221 7.15391 43.5637C6.6386 43.7311 6.41398 43.7516 5.36024 43.7482C4.85625 43.7791 4.3505 43.747 3.85395 43.6526C3.22545 43.5383 2.60999 43.3575 2.01733 43.1128C1.81139 42.9921 1.57663 42.9341 1.34016 42.9454C1.21397 42.946 1.0904 42.9827 0.983123 43.0515C0.875849 43.1202 0.789048 43.2183 0.732353 43.3349C0.635927 43.5579 0.624144 43.8103 0.699329 44.042C0.83146 44.3836 1.02964 44.5066 1.88519 44.8072C3.05828 45.2388 4.29699 45.4482 5.54191 45.4255C5.96951 45.4436 6.39778 45.4173 6.82028 45.3469C8.12177 45.0975 9.21845 44.4519 9.79322 43.5774C9.99522 43.2489 10.1509 42.8923 10.2557 42.5184C10.3589 41.9661 10.3645 41.399 10.2722 40.8446C10.1832 40.4396 10.0169 40.0569 9.78326 39.7191C9.54959 39.3813 9.25315 39.095 8.91125 38.877C8.36952 38.508 7.48095 38.1938 5.75994 37.7394C5.05236 37.5899 4.35919 37.375 3.68878 37.0972C3.23022 36.9096 2.84698 36.5663 2.60202 36.1236C2.49315 35.8549 2.44775 35.5632 2.46957 35.2727C2.4914 34.9823 2.57984 34.7013 2.72754 34.4532C3.07441 33.9903 3.55255 33.6511 4.09508 33.4831C5.27765 33.0902 7.01187 33.1756 8.64039 33.7188C8.7842 33.7692 8.93094 33.8103 9.07973 33.8417C9.21918 33.8345 9.35415 33.7884 9.47042 33.7085C9.58669 33.6285 9.67995 33.5176 9.74038 33.3874C9.81498 33.1676 9.82531 32.93 9.7701 32.7042C9.69732 32.542 9.57403 32.4097 9.41995 32.3284C8.7541 32.062 8.06166 31.873 7.35541 31.7648C6.49304 31.6311 5.61943 31.5922 4.74914 31.6487ZM25.9759 31.7887C25.8819 31.8367 25.796 31.9002 25.7216 31.9766C25.4838 32.2396 25.5003 31.7306 25.5003 38.5285C25.5003 44.4519 25.5003 44.6945 25.5663 44.8345C25.6336 44.9833 25.7412 45.1087 25.876 45.1955C26.0109 45.2822 26.1673 45.3265 26.3261 45.323C26.4403 45.3275 26.5541 45.3063 26.6596 45.2609C26.7651 45.2155 26.8598 45.1469 26.9372 45.06C27.1949 44.7935 27.1883 44.8857 27.1883 41.9514V39.3586H34.2242V41.9445C34.2242 44.7662 34.2242 44.7457 34.4191 45.019C34.5159 45.138 34.6413 45.2286 34.7827 45.2816C34.9241 45.3346 35.0765 45.3481 35.2246 45.3207C35.3727 45.2933 35.5111 45.2261 35.6261 45.1257C35.741 45.0254 35.8283 44.8955 35.8792 44.7491C35.9056 44.6535 35.9122 42.8635 35.9056 38.4397V32.267L35.7999 32.1132C35.7269 32.011 35.6401 31.9201 35.5422 31.8434C35.424 31.7541 35.2786 31.7116 35.1326 31.7238C34.981 31.6928 34.8237 31.7234 34.6933 31.8092C34.5862 31.8668 34.4925 31.9475 34.4184 32.046C34.3443 32.1444 34.2916 32.2583 34.2639 32.3797C34.2374 32.4788 34.2242 33.5275 34.2242 35.1296V37.7258H27.1883V35.0408C27.1883 32.3694 27.1882 32.3592 27.0991 32.2123C26.999 32.0197 26.8398 31.8671 26.6465 31.7785C26.4316 31.7036 26.1985 31.7072 25.9859 31.7887H25.9759ZM13.559 31.84C13.3175 31.948 13.125 32.1471 13.0205 32.3968C12.9611 32.6051 12.9545 44.5373 13.0205 44.7457C13.098 44.9644 13.2509 45.1457 13.4499 45.2547C13.6825 45.3489 13.9408 45.3489 14.1734 45.2547C14.2655 45.2195 14.3494 45.1644 14.4195 45.0932C14.4895 45.0219 14.5441 44.9361 14.5797 44.8413L14.6655 44.6569V40.3424H16.631C17.7541 40.3424 18.7517 40.3219 18.9433 40.3014C20.0572 40.2372 21.112 39.7621 21.9162 38.9624C22.2223 38.6662 22.4643 38.3065 22.6264 37.9068C23.3532 36.1988 22.9568 34.057 21.7312 32.9877C20.8769 32.2708 19.8184 31.8639 18.7187 31.8297C18.1241 31.7819 13.7439 31.7887 13.559 31.84ZM18.8442 33.5206C19.3908 33.5621 19.9177 33.7492 20.3736 34.0638C20.8055 34.4054 21.1147 34.8862 21.2523 35.4302C21.3266 35.8457 21.3266 36.2718 21.2523 36.6873C21.1033 37.2677 20.7634 37.7762 20.291 38.1254C19.9176 38.3532 19.5065 38.5072 19.0787 38.5798C18.7121 38.6549 18.5172 38.6618 16.6673 38.6754H14.6523V33.466H16.5484C17.3185 33.4413 18.0892 33.4596 18.8574 33.5206H18.8442ZM40.1569 31.8126C40.0388 31.8495 39.9293 31.9109 39.835 31.9932C39.7407 32.0754 39.6636 32.1767 39.6085 32.2909C39.5458 32.4138 39.5392 32.6325 39.5293 38.4021C39.5293 42.6517 39.5293 44.4417 39.559 44.5715C39.5902 44.6923 39.6449 44.8053 39.7199 44.9034C39.7949 45.0015 39.8885 45.0827 39.995 45.1419L40.1404 45.2239H48.0682L48.207 45.1419C48.315 45.0887 48.4095 45.01 48.483 44.9124C48.5565 44.8147 48.6069 44.7006 48.6303 44.5793C48.6538 44.4579 48.6495 44.3326 48.6178 44.2132C48.5862 44.0938 48.5281 43.9837 48.4481 43.8917C48.1938 43.6013 48.5076 43.6252 44.6725 43.6047H41.2437V41.4629V39.3279H47.3944L47.5793 39.2288C47.704 39.1685 47.8087 39.0715 47.8804 38.95C47.9521 38.8285 47.9875 38.6878 47.9823 38.5456C47.9907 38.3892 47.9532 38.2338 47.8749 38.0997C47.7965 37.9656 47.6808 37.8591 47.543 37.7941C47.4241 37.7292 47.2688 37.7223 44.3322 37.7121H41.2437V33.4284H48.0616L48.2499 33.3259C48.3748 33.2662 48.4795 33.1692 48.5507 33.0475C48.622 32.9258 48.6564 32.7848 48.6496 32.6427C48.6586 32.4857 48.6215 32.3296 48.5431 32.1948C48.4647 32.0601 48.3487 31.953 48.2103 31.8878C48.0914 31.8229 47.9229 31.8195 44.1836 31.8126C42.0166 31.799 40.2197 31.8092 40.1701 31.8229L40.1569 31.8126ZM51.9793 31.8365C51.7648 31.9284 51.5882 32.0952 51.4805 32.308C51.4177 32.448 51.4144 32.6871 51.4144 38.5661C51.4144 44.4451 51.4144 44.6842 51.4805 44.8243C51.582 45.0304 51.7521 45.1918 51.9595 45.2786C52.0743 45.3052 52.1922 45.3144 52.3096 45.3059C52.4436 45.2998 52.5741 45.2595 52.6894 45.1886C52.8046 45.1176 52.9012 45.0183 52.9703 44.8994L53.076 44.7218V42.3613V40.0042H55.2099C56.4949 40.0042 57.4363 40.0042 57.575 40.0384C58.0288 40.1013 58.4555 40.2982 58.8039 40.6055C59.2068 40.998 59.4923 41.5019 59.6264 42.0573C59.7446 42.6066 59.7989 43.1685 59.7882 43.7311C59.8147 44.7935 59.8378 44.8994 60.0822 45.1214C60.2688 45.2693 60.5032 45.3372 60.7369 45.3112C60.9706 45.2851 61.1857 45.167 61.3375 44.9814C61.4762 44.7867 61.5158 44.5612 61.5158 43.9771C61.5158 42.2691 61.1029 40.7011 60.472 39.9769C60.1973 39.673 59.858 39.4391 59.481 39.2937C59.3942 39.2685 59.3117 39.2293 59.2366 39.1776C59.2366 39.1776 59.3687 39.1092 59.5141 39.0478C60.1082 38.7845 60.6187 38.3537 60.9873 37.8046C61.3558 37.2555 61.5676 36.6103 61.5984 35.9426C61.649 35.4141 61.5835 34.8806 61.4068 34.3819C61.23 33.8833 60.9466 33.4324 60.5777 33.0629C59.917 32.4309 59.0945 32.0654 57.8856 31.881C57.3339 31.7921 52.2369 31.7648 51.9925 31.8468L51.9793 31.8365ZM57.4627 33.5104C58.4273 33.6265 58.9954 33.852 59.4249 34.3371C59.707 34.6821 59.8852 35.1051 59.9375 35.5538C59.9897 36.0024 59.9137 36.457 59.7189 36.8615C59.421 37.4132 58.9325 37.8281 58.3513 38.023C58.1354 38.1045 57.9148 38.1718 57.6907 38.2245C57.3603 38.3031 57.2612 38.3065 55.2198 38.3202H53.0991V33.466H55.0613C56.5808 33.466 57.139 33.4762 57.4759 33.5206L57.4627 33.5104ZM65.2783 31.8024C65.1702 31.8349 65.0696 31.8898 64.9827 31.9638C64.8959 32.0378 64.8244 32.1293 64.7729 32.2328L64.6771 32.4275V44.5954L64.7563 44.7559C64.8142 44.8632 64.8932 44.9566 64.9882 45.0302C65.0833 45.1037 65.1922 45.1558 65.308 45.1829C65.5623 45.2444 72.9055 45.2376 73.1566 45.1829C73.2733 45.1503 73.3821 45.0926 73.476 45.0138C73.5699 44.935 73.6467 44.8366 73.7016 44.7252C73.7741 44.5036 73.7741 44.2636 73.7016 44.042C73.6126 43.8607 73.4655 43.7171 73.2854 43.6355C73.1929 43.5945 72.5488 43.5877 69.774 43.5877H66.3783V39.321H69.414C71.2704 39.321 72.4959 39.321 72.5686 39.2869C72.6953 39.2388 72.8082 39.1581 72.8965 39.0525C72.9848 38.9469 73.0457 38.8198 73.0735 38.6832C73.1012 38.5466 73.0949 38.4049 73.0551 38.2714C73.0154 38.138 72.9434 38.0172 72.8461 37.9205C72.6049 37.6848 72.7304 37.6916 69.3974 37.6916H66.3783V33.4284H69.7839C73.0178 33.4284 73.1896 33.4284 73.325 33.3601C73.4599 33.2967 73.5736 33.1935 73.6518 33.0634C73.73 32.9333 73.7691 32.7822 73.7644 32.6291C73.7667 32.5184 73.7468 32.4083 73.7058 32.306C73.6649 32.2037 73.6038 32.1113 73.5265 32.0347C73.2854 31.7819 73.4869 31.7921 69.2323 31.7955C67.1314 31.799 65.3575 31.8126 65.2948 31.8297L65.2783 31.8024Z" fill="#17181A"/>
</svg>
