<svg width="53" height="46" viewBox="0 0 53 46" fill="none" xmlns="http://www.w3.org/2000/svg">
<g clip-path="url(#clip0_16_17)">
<path d="M14.3544 23.6045C14.3582 19.132 15.8828 14.7906 18.6832 11.2775C21.4837 7.76442 25.3975 5.2835 29.7961 4.23322C27.8645 2.67988 25.63 1.5363 23.2318 0.873724C20.8336 0.211146 18.323 0.0437663 15.8564 0.382012C13.3899 0.720258 11.0203 1.55688 8.89513 2.83977C6.77001 4.12265 4.93493 5.82431 3.50423 7.83873C2.07353 9.85315 1.07786 12.1372 0.579236 14.5485C0.0806133 16.9598 0.0897267 19.4468 0.606008 21.8545C1.12229 24.2622 2.13468 26.5391 3.5801 28.5432C5.02553 30.5473 6.87303 32.2358 9.00749 33.5034C8.83245 34.1889 8.59207 34.8565 8.28958 35.4972C7.4773 37.2272 6.23386 38.725 4.67581 39.8503C6.52166 39.9776 8.37131 39.6621 10.0672 38.9307C11.7632 38.1993 13.2551 37.0736 14.416 35.6495C15.723 35.9386 17.0583 36.0846 18.3976 36.0848C18.5319 36.0848 18.664 36.0848 18.7984 36.0848C15.9115 32.5522 14.3424 28.1455 14.3544 23.6045Z" fill="#17181A"/>
<path d="M44.6297 40.9385C44.3275 40.2975 44.0864 39.63 43.9096 38.9448C47.802 36.6166 50.665 32.9256 51.9292 28.606C53.1934 24.2864 52.7662 19.6547 50.7324 15.6323C48.6987 11.6099 45.2075 8.49146 40.9534 6.89736C36.6992 5.30327 31.9938 5.35031 27.7731 7.02912C23.5524 8.70794 20.1258 11.8955 18.1748 15.9578C16.2238 20.02 15.8914 24.6593 17.2438 28.9527C18.5961 33.2462 21.5341 36.8792 25.4733 39.1291C29.4125 41.379 34.0643 42.0809 38.5033 41.0952C39.6641 42.5186 41.1558 43.6435 42.8514 44.3742C44.547 45.1049 46.3961 45.4196 48.2413 45.2916C46.6845 44.1656 45.442 42.6679 44.6297 40.9385Z" fill="#17181A"/>
<path d="M46.9532 11.1873C49.7432 11.1873 52.005 8.95185 52.005 6.1943C52.005 3.43674 49.7432 1.20129 46.9532 1.20129C44.1631 1.20129 41.9014 3.43674 41.9014 6.1943C41.9014 8.95185 44.1631 11.1873 46.9532 11.1873Z" fill="#01C189"/>
<path d="M43.1851 16.3435C43.1692 16.2722 43.1346 16.2063 43.0847 16.1524C43.0349 16.0985 42.9715 16.0586 42.9011 16.0366C42.6453 15.9865 42.3806 16.0053 42.1347 16.091C42.1347 16.091 25.0568 22.1592 24.0768 22.8383C23.8566 22.9841 23.7972 23.0668 23.7619 23.167C23.5924 23.6458 24.1187 23.8548 24.1187 23.8548L28.523 25.2739C28.5965 25.2852 28.6717 25.2808 28.7433 25.2608C29.743 24.634 38.816 18.9728 39.3401 18.7812C39.4238 18.7573 39.4833 18.7812 39.4679 18.8422C39.2587 19.5691 31.3771 26.4906 31.3771 26.4906C31.3582 26.5157 31.342 26.5427 31.3286 26.5711L30.919 30.8872C30.919 30.8872 30.7472 32.2084 32.084 30.8872C33.0287 29.9556 33.9404 29.1742 34.3984 28.7955C35.9113 29.8272 37.541 30.9721 38.2435 31.5663C38.3613 31.6795 38.501 31.7681 38.6542 31.8268C38.8075 31.8855 38.9711 31.9131 39.1353 31.908C39.796 31.8819 39.9876 31.1571 39.9876 31.1571C39.9876 31.1571 43.0926 18.7682 43.2028 17.1096C43.2028 16.9464 43.227 16.8441 43.227 16.7309C43.2322 16.6005 43.2181 16.4699 43.1851 16.3435Z" fill="white"/>
</g>
<defs>
<clipPath id="clip0_16_17">
<rect width="52.3986" height="45.0872" fill="white" transform="translate(0.260254 0.237061)"/>
</clipPath>
</defs>
</svg>
