<svg width="143" height="143" viewBox="0 0 143 143" fill="none" xmlns="http://www.w3.org/2000/svg">
<path fill-rule="evenodd" clip-rule="evenodd" d="M142.329 17.0112C143.615 7.17549 135.538 -0.90175 125.702 0.384629C109.9 2.45135 83.423 8.0982 66.4601 23.8307C60.7916 29.088 55.5619 35.4995 50.9412 42.0701L50.3087 42.1756L50.3448 41.9224L37.0515 40.0233C33.8689 39.5687 30.6579 40.639 28.3846 42.9123L7.02032 64.2766C1.06868 70.2282 4.46601 80.4202 12.7983 81.6105L32.7383 84.4591L32.9622 82.8914C33.744 85.4748 35.1687 87.8796 37.1494 89.8604L52.8528 105.564C54.8334 107.544 57.2381 108.969 59.8214 109.751L58.2542 109.975L61.1028 129.915C62.2931 138.247 72.4851 141.644 78.4367 135.693L99.8009 114.328C102.074 112.055 103.145 108.844 102.69 105.661L100.791 92.3681L99.5292 92.5484C106.486 87.7401 113.328 82.2414 118.882 76.253C134.615 59.2901 140.262 32.8133 142.329 17.0112Z" fill="#B6EBF3"/>
<path d="M35.0011 111.247C35.9774 110.27 35.9774 108.687 35.0011 107.711C34.0248 106.735 32.4418 106.735 31.4655 107.711L35.0011 111.247ZM12.4751 126.702C11.4988 127.678 11.4988 129.261 12.4751 130.237C13.4514 131.213 15.0343 131.213 16.0106 130.237L12.4751 126.702ZM20.7582 97.0039C21.7346 96.0275 21.7346 94.4446 20.7582 93.4683C19.7819 92.492 18.199 92.492 17.2227 93.4683L20.7582 97.0039ZM7.7275 102.964C6.75119 103.94 6.75119 105.523 7.7275 106.499C8.70381 107.475 10.2867 107.475 11.263 106.499L7.7275 102.964ZM49.2439 125.489C50.2202 124.513 50.2202 122.93 49.2439 121.954C48.2676 120.978 46.6847 120.978 45.7083 121.954L49.2439 125.489ZM36.2131 131.449C35.2368 132.425 35.2368 134.008 36.2131 134.985C37.1895 135.961 38.7724 135.961 39.7487 134.985L36.2131 131.449ZM31.4655 107.711L12.4751 126.702L16.0106 130.237L35.0011 111.247L31.4655 107.711ZM17.2227 93.4683L7.7275 102.964L11.263 106.499L20.7582 97.0039L17.2227 93.4683ZM45.7083 121.954L36.2131 131.449L39.7487 134.985L49.2439 125.489L45.7083 121.954Z" fill="#17181A"/>
<path d="M85.4555 38.2652C80.2114 43.5093 80.2114 52.0116 85.4555 57.2557C90.6995 62.4997 99.2018 62.4997 104.446 57.2557C109.69 52.0116 109.69 43.5093 104.446 38.2652C99.2018 33.0212 90.6995 33.0212 85.4555 38.2652Z" fill="#17181A"/>
</svg>
