<svg width="15" height="19" viewBox="0 0 15 19" fill="none" xmlns="http://www.w3.org/2000/svg">
<path d="M0 2.06048C0 2.0148 0.0234606 1.85193 0.334339 1.58943C0.641121 1.33039 1.13741 1.05732 1.82795 0.8107C3.20135 0.3202 5.15674 0 7.35887 0C9.561 0 11.5164 0.3202 12.8898 0.8107C13.5803 1.05732 14.0766 1.33039 14.3834 1.58943C14.6943 1.85193 14.7177 2.0148 14.7177 2.06048C14.7177 2.10616 14.6943 2.26904 14.3834 2.53154C14.0766 2.79058 13.5803 3.06365 12.8898 3.31027C11.5164 3.80077 9.561 4.12097 7.35887 4.12097C5.15674 4.12097 3.20135 3.80077 1.82795 3.31027C1.13741 3.06365 0.641121 2.79058 0.334339 2.53154C0.0234606 2.26904 0 2.10616 0 2.06048Z" fill="#25282A"/>
<path d="M13.4838 4.97351C13.7919 4.86348 14.0866 4.74233 14.3627 4.60956C14.5244 4.53181 14.7177 4.64661 14.7177 4.82601V6.77016C14.7177 6.81584 14.6943 6.97871 14.3834 7.24121C14.0766 7.50026 13.5803 7.77332 12.8898 8.01995C11.5164 8.51044 9.561 8.83064 7.35887 8.83064C5.15674 8.83064 3.20135 8.51044 1.82795 8.01995C1.13741 7.77332 0.641121 7.50026 0.334339 7.24121C0.0234606 6.97871 0 6.81584 0 6.77016V4.82601C0 4.64661 0.193385 4.53181 0.355067 4.60956C0.631141 4.74233 0.925864 4.86348 1.23394 4.97351C2.84353 5.54836 5.0091 5.8871 7.35887 5.8871C9.70864 5.8871 11.8742 5.54836 13.4838 4.97351Z" fill="#25282A"/>
<path d="M13.4838 9.68318C13.7919 9.57316 14.0866 9.45201 14.3627 9.31924C14.5244 9.24148 14.7177 9.35628 14.7177 9.53569V11.4798C14.7177 11.5255 14.6943 11.6884 14.3834 11.9509C14.0766 12.2099 13.5803 12.483 12.8898 12.7296C11.5164 13.2201 9.561 13.5403 7.35887 13.5403C5.15674 13.5403 3.20135 13.2201 1.82795 12.7296C1.13741 12.483 0.641121 12.2099 0.334339 11.9509C0.0234606 11.6884 0 11.5255 0 11.4798V9.53569C0 9.35628 0.193385 9.24148 0.355067 9.31924C0.631141 9.45201 0.925864 9.57316 1.23394 9.68318C2.84353 10.258 5.0091 10.5968 7.35887 10.5968C9.70864 10.5968 11.8742 10.258 13.4838 9.68318Z" fill="#80BFC9"/>
<path d="M13.4838 14.3929C13.7919 14.2828 14.0866 14.1617 14.3627 14.0289C14.5244 13.9512 14.7177 14.066 14.7177 14.2454V16.1895C14.7177 16.2352 14.6943 16.3981 14.3834 16.6606C14.0766 16.9196 13.5803 17.1927 12.8898 17.4393C11.5164 17.9298 9.561 18.25 7.35887 18.25C5.15674 18.25 3.20135 17.9298 1.82795 17.4393C1.13741 17.1927 0.641121 16.9196 0.334339 16.6606C0.0234606 16.3981 0 16.2352 0 16.1895V14.2454C0 14.066 0.193385 13.9512 0.355067 14.0289C0.631141 14.1617 0.925864 14.2828 1.23394 14.3929C2.84353 14.9677 5.0091 15.3065 7.35887 15.3065C9.70864 15.3065 11.8742 14.9677 13.4838 14.3929Z" fill="#25282A"/>
</svg>
