<svg width="43" height="44" viewBox="0 0 43 44" fill="none" xmlns="http://www.w3.org/2000/svg">
<path fill-rule="evenodd" clip-rule="evenodd" d="M13.5238 41.9617C16.0988 43.0588 18.86 43.6264 21.6496 43.6323C27.2651 43.628 32.6505 41.3506 36.6286 37.2981C40.6067 33.2455 42.8539 27.7474 42.8789 22.0057C42.9116 16.0179 40.7821 10.8116 36.6734 6.59045C32.5647 2.3693 27.5448 0.211978 21.7377 0.191941C18.9481 0.186021 16.1847 0.741968 13.6053 1.82804C11.0258 2.91411 8.6808 4.50904 6.70416 6.52176C4.72752 8.53448 3.15796 10.9256 2.08507 13.5585C1.01219 16.1915 0.457008 19.0147 0.451218 21.8671C0.445427 24.7194 0.989146 27.545 2.05133 30.1825C3.11351 32.8199 4.67336 35.2177 6.6418 37.2388C8.61025 39.2599 10.9488 40.8647 13.5238 41.9617ZM34.7727 18.1485C35.028 19.0272 35.1772 19.9345 35.2169 20.8502C35.2213 21.05 35.2376 21.2499 35.2539 21.4498C35.2739 21.6941 35.2938 21.9384 35.292 22.1826C35.2334 24.0727 34.8047 25.9316 34.0313 27.6494C32.6314 30.7242 30.1771 33.1672 27.1334 34.5155C26.1087 34.9675 25.0355 35.2948 23.936 35.4906C22.9213 35.6682 21.8892 35.7187 20.8626 35.6409C19.5568 35.566 18.269 35.2937 17.0413 34.8327C16.9581 34.8008 16.8679 34.7933 16.7808 34.811C16.6936 34.8287 16.613 34.8709 16.5481 34.9329C15.9046 35.3984 15.2585 35.8571 14.6122 36.316C14.2384 36.5814 13.8645 36.8468 13.4911 37.1136C13.3983 37.2014 13.2845 37.2625 13.1611 37.2906C13.0378 37.3188 12.9094 37.313 12.7889 37.2739C12.7137 37.1818 12.657 37.0753 12.6223 36.9607C12.5875 36.846 12.5753 36.7255 12.5864 36.606V32.5518C12.5905 32.4259 12.5672 32.3006 12.518 32.1851C12.4689 32.0696 12.3952 31.9667 12.3023 31.8839C11.0953 30.7277 10.1096 29.3518 9.39547 27.8264C8.75467 26.5108 8.3414 25.0917 8.17396 23.632C8.09929 23.0783 8.0535 22.5209 8.03679 21.9622C8.02099 20.0705 8.38331 18.1955 9.10152 16.452C9.6718 15.1011 10.443 13.8484 11.3878 12.7385C12.5488 11.3671 13.9642 10.2446 15.552 9.43571C16.7997 8.78627 18.142 8.34758 19.5268 8.13664C20.3978 7.98206 21.2825 7.92384 22.1658 7.96299C23.9351 8.04625 25.6735 8.4688 27.2902 9.20863C28.4928 9.77467 29.6102 10.5135 30.6085 11.4027C32.6261 13.174 34.0769 15.5241 34.7727 18.1485ZM27.2673 24.3099C27.504 23.7153 27.6611 23.0907 27.7344 22.4531C27.7434 22.2738 27.7379 22.0939 27.718 21.9155H15.5487C15.5647 22.0548 15.5774 22.183 15.5895 22.3046C15.6046 22.457 15.6187 22.5992 15.6369 22.7403C15.8574 24.3751 16.7038 25.8534 17.9899 26.8504C19.276 27.8473 20.8967 28.2813 22.4956 28.0569C23.4907 27.9253 24.4363 27.5356 25.2424 26.9248C26.1341 26.2542 26.8334 25.3512 27.2673 24.3099Z" fill="#17181A"/>
</svg>
